<svg xmlns="http://www.w3.org/2000/svg" xmlns:xlink="http://www.w3.org/1999/xlink" xmlns:a="http://ns.adobe.com/AdobeSVGViewerExtensions/3.0/" version="1.1" x="0px" y="0px" width="100px" height="100px" viewBox="-2.88 -18.573 100 100" enable-background="new -2.88 -18.573 100 100" xml:space="preserve">
<defs>
</defs>
<polygon stroke="#231F20" points="58.921,46.003 80.086,31.172 58.921,16.338 53.407,12.474 53.407,1.504 74.573,16.338   95.74,31.172 74.573,46.003 53.407,60.838 53.407,49.87 " fill="#000000"/>
<path d="M53.408,27.326c-0.004-0.167-0.011-0.335-0.017-0.502c0-0.103-0.002-0.208-0.002-0.31c-0.005-0.004-0.007-0.007-0.007-0.011  c-0.188-4.782-1.134-9.687-3.759-13.839C40.79-1.32,26.242-3.6,13.846,5.216c-4.24,3.015-7.525,6.869-9.718,11.221  c-0.005-0.062-0.011-0.125-0.016-0.187c-0.185,0.438-0.358,0.881-0.525,1.326c-0.481,1.066-0.899,2.158-1.25,3.274  c-4.69,12.38-2.265,26.868,6.774,35.272c4.489,4.175,9.911,6.202,15.4,6.221c0.915,0.01,1.83-0.043,2.743-0.156  c6.492-0.766,12.876-4.309,17.716-10.403l-1.787-2.598l-1.744-2.764c-7.585,10.236-19.915,11.875-28.246,3.426  C7.787,44.365,6.419,36.503,7.11,28.123c1.351-6.053,3.623-12.161,8.675-15.753c10.179-7.239,23.385-3.875,29.493,7.511  c1.193,2.223,2.013,4.521,2.492,6.832c0.14,5.386-1.675,12.306-6.522,12.489c-0.262-0.04-0.581,0.035-0.918,0  c-1.094-0.114-2.309-0.636-3.025-1.404l1.639-22.517l-1.152-0.051l-3.704-0.514c-1.208-0.28-2.531-0.362-3.965-0.214  c-1.139,0.117-2.253,0.379-3.331,0.764l-0.01-0.047c-0.07,0.042-0.143,0.085-0.213,0.128c-3.328,1.25-6.289,3.7-8.478,6.859  l0.014,0.031c-2.093,2.37-3.778,5.102-4.478,8.099c-0.677,2.901-0.758,5.643-0.274,8.036c0.072,0.181,0.124,0.365,0.156,0.56  c0.163,0.366,0.277,0.731,0.329,1.116c0.06,0.15,0.118,0.293,0.141,0.355c0.104,0.272,0.236,0.521,0.38,0.775  c0.248,0.441,0.506,0.898,0.674,1.381c1.419,2.125,3.587,3.605,6.494,4.135c3.777,0.684,7.608-0.585,10.652-3.148l0.028,0.028  l2.35-2.205c0.717,0.769,1.54,1.453,2.468,2.032c2.392,1.499,5.067,1.4,7.54,1.124c0,0.002,2.348-0.906,2.348-0.904  c4.976-2.444,6.496-7.923,6.496-13.737c0-0.881-0.004-1.734-0.011-2.562L53.408,27.326z M30.15,35.889  c-0.979,2.452-2.641,3.695-4.823,4.488c-0.749,0.118-1.01-0.013-1.394-0.112c-3.253-0.847-4.797-6.052-3.263-10.83  c0.992-3.09,3.899-5.968,6.258-7.042c0.534-0.178,1.07-0.278,1.593-0.294c1.215-0.035,2.359,0.496,3.338,1.414L30.15,35.889z"/>
</svg>