<svg xmlns="http://www.w3.org/2000/svg" xmlns:xlink="http://www.w3.org/1999/xlink" version="1.1" x="0px" y="0px" width="100px" height="100px" viewBox="0 0 100 100" enable-background="new 0 0 100 100" xml:space="preserve">
<g id="Captions">
</g>
<g id="Your_Icon">
	<circle cx="13.121" cy="30.143" r="7.703"/>
	<path d="M37.205,62.113l-12.994-0.027l-3.484-17.364C18.67,35.659,5.884,38.35,7.27,47.216l4.037,20.183   c0.606,3.035,3.035,5.69,6.904,5.69h16.598c0,0,0,12.986,0,18.373c0,5.81,8.163,5.836,8.163,0.103V67.956   C42.972,65.148,40.999,62.113,37.205,62.113z"/>
	<path d="M28.723,74.641H17.799c-3.947,0-7.209-2.353-8.195-6.754L6.082,50.62c-0.871-4.195-6.769-2.832-6.016,1.267l3.713,18.048   c1.512,6.729,7.29,11.083,13.084,11.083h11.919C33.014,81.018,33.034,74.641,28.723,74.641z"/>
	<circle cx="86.878" cy="30.143" r="7.703"/>
	<path d="M88.693,67.398l4.037-20.183c1.386-8.866-11.399-11.557-13.457-2.494L75.79,62.086l-12.995,0.027   c-3.794,0-5.767,3.035-5.767,5.843v23.608c0,5.733,8.164,5.707,8.164-0.103c0-5.387,0-18.373,0-18.373h16.597   C85.659,73.089,88.087,70.434,88.693,67.398z"/>
	<path d="M93.918,50.62l-3.521,17.267c-0.986,4.401-4.249,6.754-8.194,6.754H71.277c-4.312,0-4.291,6.377-0.06,6.377h11.918   c5.795,0,11.574-4.354,13.085-11.083l3.713-18.048C100.687,47.789,94.788,46.425,93.918,50.62z"/>
	<path d="M39.154,18.552h13.507l-3.851,3.093c-1.149,0.923-1.332,2.604-0.409,3.753c0.527,0.657,1.302,0.998,2.083,0.998   c0.587,0,1.178-0.193,1.671-0.589l10.362-8.326c0.632-0.508,0.996-1.264,0.998-2.075s-0.358-1.568-0.987-2.08L51.967,4.755   c-1.146-0.929-2.826-0.754-3.756,0.391c-0.929,1.145-0.754,2.826,0.391,3.755l0,0l4.124,3.347H39.154   c-1.74,0-3.151,1.411-3.151,3.152S37.414,18.552,39.154,18.552z"/>
	<path d="M51.398,44.976L51.398,44.976l-4.125-3.348h13.572c1.74,0,3.151-1.411,3.151-3.152s-1.411-3.151-3.151-3.151H47.34   l3.85-3.093c1.149-0.923,1.332-2.604,0.408-3.753c-0.923-1.149-2.604-1.333-3.753-0.409l-10.362,8.326   c-0.632,0.508-0.996,1.264-0.998,2.075s0.358,1.568,0.987,2.079l10.562,8.572c0.495,0.401,1.09,0.597,1.681,0.597   c0.777,0,1.547-0.337,2.075-0.987C52.718,47.586,52.543,45.905,51.398,44.976z"/>
</g>
</svg>