<svg xmlns="http://www.w3.org/2000/svg" xmlns:xlink="http://www.w3.org/1999/xlink" version="1.1" id="Layer_1" x="0px" y="0px" width="100.0px" height="100px" viewBox="0 0 697.861 697.861" enable-background="new 0 0 697.861 697.861" xml:space="preserve">
<path fill-rule="evenodd" clip-rule="evenodd" fill="#000000" d="M341.976,364.541l58.48,58.48l67.29-65.07v0.25l48-46.42v-0.24  l15.62-15.11l166.5-161l-28.5-29.5l-28.5-29.5l-166.5,160.5L341.976,364.541z M382.886,441.451l-58.28-58.28l-31.24,89.26l88.5-30  L382.886,441.451z M381.246,162.681v56.5h-246.75v-56.5H381.246z M429.246,114.431H86.496v153h288.3l54.45-52.41V114.431z   M451.496,70.681c11.25,1,16.25,9.5,16.25,17.75v89.32c3.72-3.57,7.47-7.15,11.25-10.7l36.75-35.64v-48.73c0-0.75-0.75-4.25-1-6.25  c-2-11-6.5-22.5-16-32.75c-9.75-11-21.5-16.5-31.5-19.25c-5-1.25-9.5-1.5-14.5-2h-390c-2.25,0.25-4.75,0.25-6.5,0.5  c-3.25,0.5-6.5,1.25-9.5,2c-2.25,0.75-4.75,1.75-6.5,2.25c-2.25,0.75-4.5,2.25-6.75,3.25c-17.25,8.5-29.25,28.25-32,42.25  c-0.5,3.25-1,6.75-1.5,10v532.5c0,0.5,0.75,6.75,1.5,10s2,6.25,3,9.5c0.75,1.5,1.75,3.5,2.25,5c8,18,30,32,45,34.25  c3.5,0.5,7,1.25,10.5,1.5h391c0.75,0,6.5-0.75,9.5-1.25s7.5-1.75,10.75-3c8.25-3.25,17-8,25.25-17s12.75-19.25,15-28  c0.75-3.75,1.5-7.5,2-11.25v-237.4l-48,46.63v185.02c0.25,10-8.5,18-15.75,18h-388.5c-11-1.5-15.5-10-15.5-17.75V88.681  c0.25-1.25,0.25-3,0.25-4c1-8,9.75-14.5,15.75-14H451.496z M428.866,536.431h-342v48h342V536.431z M257.866,435.431h-171v48h171  V435.431z M257.866,325.431h-171v48h171V325.431z"/>
</svg>