<svg xmlns="http://www.w3.org/2000/svg" xmlns:xlink="http://www.w3.org/1999/xlink" version="1.1" x="0px" y="0px" width="74px" height="100px" viewBox="0 0 74 100" enable-background="new 0 0 74 100" xml:space="preserve">
<g id="Captions">
</g>
<g id="Your_Icon">
	<polygon fill="#000000" points="71.671,25.192 49,25.192 49,3.134  "/>
	<g>
		<rect x="29" y="61" width="6" height="6"/>
		<rect x="11" y="43" width="6" height="6"/>
		<path d="M46,28V0H0v100h74V28H46z M27,41h10v10H27V41z M9,41h10v10H9V41z M19,87H9V77h10V87z M19,69H9V59h10V69z M37,87H27V77h10    V87z M37,69H27V59h10V69z M68,84H46v-4h22V84z M68,66H46v-4h22V66z M68,48H46v-4h22V48z"/>
		<rect x="11" y="79" width="6" height="6"/>
	</g>
</g>
<g id="Layer_3">
</g>
<g id="Layer_4">
</g>
</svg>