<svg xmlns="http://www.w3.org/2000/svg" xmlns:xlink="http://www.w3.org/1999/xlink" version="1.1" id="Layer_1" x="0px" y="0px" width="100px" height="100px" viewBox="0 0 100 100" enable-background="new 0 0 100 100" xml:space="preserve">
<path fill="#000000" d="M85.65,46.792h-7.615V26.275c0-2.259-0.336-8.12-3.44-13.723c-2.968-5.354-9.18-11.735-21.928-11.735  c-12.747,0-18.96,6.381-21.927,11.735c-3.105,5.603-3.441,11.463-3.441,13.723v20.518H21.54c-2.905,0-5.26,2.354-5.26,5.258v41.871  c0,2.906,2.355,5.26,5.26,5.26H85.65c2.904,0,5.26-2.354,5.26-5.26V52.051C90.91,49.146,88.555,46.792,85.65,46.792z M37.482,26.275  C37.482,21.682,38.962,11,52.667,11s15.186,10.682,15.186,15.274v20.518h-30.37V26.275z M45.358,89.152L34.527,76.955l6.175-5.436  l4.753,5.396l21.149-20.094l6.058,7.08L45.358,89.152z"/>
</svg>